<svg width="34" height="32" viewBox="0 0 34 32" fill="none" xmlns="http://www.w3.org/2000/svg">
<g id="cardAmex">
<path id="amex" fill-rule="evenodd" clip-rule="evenodd" d="M31.4 12.9125L29.3429 15.5L31.5143 18.2L33 20H28.3143L27.9714 19.6625L26.9429 18.5375L25.9143 19.6625L25.5714 20H16.2V19.8875L16.0857 20H13.1143L12.8857 19.4375V20H7.85714L7.62857 19.2125L7.28571 18.3125H5.8L5.45714 19.2125L5.22857 20H1L1.68571 18.3125L4.42857 11.675L4.77143 11H8.31429L8.65714 11.675L9 12.6875V11H13.4571L13.6857 11.675L14.6 13.7L15.5143 11.675L15.8571 11H25.8L26.1429 11.45L26.9429 12.4625L27.8571 11.45L28.2 11H33L31.4 12.9125ZM19.1714 18.875H17.3429V13.925L15.4 18.875H13.9143L11.7429 13.925V18.875H8.65715L8.08572 17.1875H5.00001L4.42858 18.875H2.71429L5.45715 12.2375H7.51429L10.1429 18.5375V12.2375H12.6572L14.6 16.625L16.5429 12.2375H19.1714V18.875ZM26.9429 16.7375L28.7714 18.875H30.4857L27.8572 15.5L30.6 12.2375H28.7714L26.9429 14.375L25.2286 12.2375H20.2V18.875H25L26.9429 16.7375ZM5.57141 15.725H7.51427L6.59998 13.475L5.57141 15.725ZM21.8 13.475V14.9375H23.9714V16.0625H21.8V17.525H24.2L25.9143 15.5L24.4286 13.5875L21.8 13.475Z" fill="#3F94DF"/>
</g>
</svg>
