<svg width="32" height="32" viewBox="0 0 32 32" fill="none" xmlns="http://www.w3.org/2000/svg"><path d="M15.72 9.38c.84 0 1.88-.58 2.5-1.35.56-.7.97-1.68.97-2.66 0-.13-.01-.26-.03-.37-.93.04-2.04.64-2.71 1.45-.53.62-1 1.58-1 2.57 0 .15.02.3.03.34.06.01.15.03.24.03ZM12.8 24c1.14 0 1.64-.79 3.06-.79 1.44 0 1.76.76 3.03.76 1.24 0 2.07-1.18 2.86-2.34.87-1.32 1.24-2.63 1.26-2.69a4.16 4.16 0 0 1-2.46-3.84c0-2.44 1.87-3.54 1.98-3.62a4.29 4.29 0 0 0-3.65-1.89c-1.39 0-2.53.87-3.24.87-.78 0-1.8-.82-3-.82-2.3 0-4.63 1.96-4.63 5.65 0 2.3.87 4.72 1.93 6.3.92 1.32 1.71 2.41 2.86 2.41Z" fill="#000"/></svg>
