<svg width="32" height="32" viewBox="0 0 32 32" fill="none" xmlns="http://www.w3.org/2000/svg">
<g id="cardMasterCard">
<g id="mastercard">
<g id="mastercard_2">
<path id="Shape" d="M11.9625 9C15.8078 9 18.925 12.134 18.925 16C18.925 19.866 15.8078 23 11.9625 23C9.47504 23 7.17653 21.6658 5.9328 19.5C4.68907 17.3342 4.68907 14.6658 5.9328 12.5C7.17653 10.3342 9.47504 9 11.9625 9" fill="#F22F12"/>
<path id="Shape_2" d="M21.2458 9.10605C25.0436 9.21211 28.1028 12.2879 27.9973 16.106C27.8918 19.9242 24.8326 23 21.0348 22.8939C17.2371 22.7879 14.2833 19.8182 14.2833 16C14.2833 12.1818 17.4481 9.10605 21.2458 9.10605Z" fill="#F79F1A"/>
<path id="Shape_3" d="M14.2834 16C14.2834 13.9848 15.1273 12.1818 16.6042 10.9091C19.4525 13.3485 19.6635 17.697 17.2371 20.4545L16.6042 21.0909C15.1189 19.8232 14.269 17.9588 14.2834 16Z" fill="#FF5F01"/>
</g>
</g>
</g>
</svg>
