<svg width="32" height="32" viewBox="0 0 32 32" fill="none" xmlns="http://www.w3.org/2000/svg">
<g id="cardDiscovery">
<g id="discover">
<path id="discover_2" fill-rule="evenodd" clip-rule="evenodd" d="M4.49561 18.5994H5.49463V13.0105H4.49561V18.5994ZM2.65221 17.209C2.33608 17.5183 1.92543 17.6532 1.27534 17.6532H1.00532V13.9575H1.27534C1.92543 13.9575 2.31992 14.0835 2.65221 14.4095C3.00016 14.7452 3.20949 15.2654 3.20949 15.8008C3.20949 16.3373 3.00016 16.8734 2.65221 17.209ZM1.47688 13.0105H0V18.5994H1.46909C2.25029 18.5994 2.81436 18.3997 3.30952 17.9542C3.8979 17.4266 4.24585 16.6313 4.24585 15.8088C4.24585 14.1595 3.10856 13.0105 1.47688 13.0105ZM7.18666 14.498C7.18666 14.7867 7.35899 14.9393 7.94581 15.1707C9.05824 15.6042 9.38782 15.9884 9.38782 16.8372C9.38782 17.8714 8.67496 18.5914 7.65868 18.5914C6.91461 18.5914 6.37351 18.279 5.92295 17.5743L6.55474 16.9261C6.77988 17.3901 7.15558 17.6386 7.622 17.6386C8.05832 17.6386 8.38129 17.3179 8.38129 16.8851C8.38129 16.6607 8.28345 16.4683 8.08805 16.3323C7.98971 16.2678 7.79488 16.172 7.41209 16.0281C6.49364 15.6759 6.17859 15.2991 6.17859 14.5631C6.17859 13.6887 6.8552 13.0323 7.74221 13.0323C8.29187 13.0323 8.79495 13.2327 9.21542 13.6246L8.70378 14.3386C8.44898 14.0341 8.20819 13.9059 7.91516 13.9059C7.49366 13.9059 7.18666 14.1616 7.18666 14.498ZM9.69634 15.7959C9.69634 17.3662 10.8535 18.5838 12.3426 18.5838C12.7635 18.5838 13.124 18.4956 13.5686 18.2724V17.0458C13.1777 17.4628 12.8314 17.6309 12.388 17.6309C11.4032 17.6309 10.7041 16.87 10.7041 15.7882C10.7041 14.7626 11.4253 13.9535 12.3426 13.9535C12.809 13.9535 13.1621 14.1308 13.5686 14.5546V13.3285C13.1394 13.0965 12.7864 13.0004 12.3656 13.0004C10.8841 13.0004 9.69634 14.2426 9.69634 15.7959ZM20.8138 13.0105L22.1301 16.6707L23.4636 13.0105H24.5073L22.3748 18.5994H21.8567L19.762 13.0105H20.8138ZM25.0068 18.5994H27.7541V17.6532H25.9747V16.1446H27.6885V15.1979H25.9747V13.9575H27.7541V13.0105H25.0068V18.5994ZM29.4364 15.5836H29.7093C30.3058 15.5836 30.6221 15.2811 30.6221 14.7192C30.6221 14.1753 30.3058 13.8908 29.7241 13.8908H29.4364V15.5836ZM29.8885 13.0105C30.9658 13.0105 31.5834 13.6142 31.5834 14.6605C31.5834 15.5163 31.196 16.0779 30.4924 16.2449L32 18.5994H30.8512L29.5582 16.3543H29.4364V18.5994H28.5034V13.0105H29.8885Z" fill="#201D1C"/>
<ellipse id="circle" cx="16.7805" cy="15.8" rx="2.73171" ry="2.8" fill="#F16000"/>
</g>
</g>
</svg>
