<svg width="32" height="32" viewBox="0 0 32 32" fill="none" xmlns="http://www.w3.org/2000/svg"><path fill-rule="evenodd" clip-rule="evenodd" d="M23.68 16.18c0-.57-.05-1.11-.14-1.64H16v3.1h4.3a3.68 3.68 0 0 1-1.6 2.41v2.01h2.6a7.8 7.8 0 0 0 2.38-5.88Z" fill="#4285F4"/><path fill-rule="evenodd" clip-rule="evenodd" d="M16 24c2.16 0 3.97-.72 5.3-1.94l-2.6-2a4.8 4.8 0 0 1-7.18-2.54H8.85v2.07A8 8 0 0 0 16 24Z" fill="#34A853"/><path fill-rule="evenodd" clip-rule="evenodd" d="M11.52 17.52a4.81 4.81 0 0 1-.25-1.52c0-.53.1-1.04.25-1.52v-2.07H8.85A8 8 0 0 0 8 16c0 1.29.31 2.51.85 3.6l2.67-2.08Z" fill="#FBBC05"/><path fill-rule="evenodd" clip-rule="evenodd" d="M16 11.18c1.18 0 2.23.4 3.06 1.2l2.3-2.3A7.7 7.7 0 0 0 16 8a8 8 0 0 0-7.15 4.4l2.67 2.08a4.77 4.77 0 0 1 4.48-3.3Z" fill="#EA4335"/></svg>
