<svg width="32" height="32" fill="none" xmlns="http://www.w3.org/2000/svg" viewBox="0 0 33 32">
  <path d="M15.135 17.208v3.725h-1.182v-9.199h3.134a2.836 2.836 0 0 1 2.03.796 2.56 2.56 0 0 1 .848 1.942 2.549 2.549 0 0 1-.848 1.952c-.548.523-1.225.784-2.03.783h-1.952v.001Zm0-4.341v3.21h1.982a1.562 1.562 0 0 0 1.17-.475 1.568 1.568 0 0 0 0-2.248 1.54 1.54 0 0 0-1.17-.488h-1.982ZM22.688 14.434c.873 0 1.563.233 2.068.7.506.467.758 1.107.758 1.92v3.88h-1.13v-.874h-.052c-.49.719-1.14 1.079-1.952 1.079-.694 0-1.274-.206-1.74-.617a1.967 1.967 0 0 1-.701-1.541c0-.652.246-1.17.738-1.554.493-.385 1.15-.578 1.972-.579.702 0 1.28.129 1.734.386v-.27a1.346 1.346 0 0 0-.488-1.046 1.674 1.674 0 0 0-1.141-.431c-.66 0-1.183.278-1.567.835l-1.041-.655c.572-.822 1.42-1.233 2.542-1.233Zm-1.53 4.572a.945.945 0 0 0 .393.771c.261.206.586.315.918.308.499 0 .977-.199 1.33-.552.39-.368.587-.8.587-1.297-.369-.293-.883-.44-1.542-.44-.48 0-.88.116-1.2.347-.324.235-.485.52-.485.863ZM32.002 14.64l-3.946 9.068h-1.22l1.465-3.173-2.595-5.896h1.285l1.875 4.522h.026l1.824-4.522h1.286Z" fill="#222E3A"/>
  <path d="M10.36 16.405c0-.36-.03-.72-.091-1.074H5.285v2.035h2.854a2.446 2.446 0 0 1-1.055 1.606v1.321h1.703c.998-.92 1.573-2.28 1.573-3.888Z" fill="#4285F4"/>
  <path d="M5.285 21.57c1.426 0 2.627-.47 3.502-1.276l-1.703-1.322c-.474.322-1.085.505-1.8.505-1.378 0-2.548-.929-2.966-2.181H.563v1.361a5.285 5.285 0 0 0 4.722 2.912Z" fill="#34A853"/>
  <path d="M2.318 17.296a3.166 3.166 0 0 1 0-2.023v-1.361H.563a5.285 5.285 0 0 0 0 4.746l1.755-1.362Z" fill="#FBBC04"/>
  <path d="M5.285 13.092a2.87 2.87 0 0 1 2.027.792l1.508-1.508A5.077 5.077 0 0 0 5.285 11a5.284 5.284 0 0 0-4.722 2.912l1.755 1.361c.418-1.252 1.588-2.181 2.967-2.181Z" fill="#EA4335"/>
</svg>
