<svg fill="none" xmlns="http://www.w3.org/2000/svg" viewBox="0 0 32 9" width="42" height="12">
    <path
        d="M3.84 0H1.35a.34.34 0 0 0-.22.09A.36.36 0 0 0 1 .3L0 6.83a.22.22 0 0 0 .04.18.2.2 0 0 0 .16.07H1.4c.08 0 .16-.03.22-.09.06-.05.1-.13.12-.21L2 5.02a.36.36 0 0 1 .12-.22.34.34 0 0 1 .22-.08h.79c1.64 0 2.58-.81 2.83-2.42.11-.7 0-1.26-.32-1.65C5.3.23 4.67 0 3.84 0Zm.29 2.39c-.14.91-.82.91-1.48.91h-.38l.27-1.7c0-.06.03-.1.07-.13a.2.2 0 0 1 .13-.05h.17c.45 0 .88 0 1.1.26.13.15.17.39.12.7Zm7.15-.03h-1.2a.2.2 0 0 0-.13.05.21.21 0 0 0-.07.13l-.05.34-.08-.13c-.26-.38-.84-.5-1.41-.5-1.32 0-2.44 1.01-2.66 2.45-.12.71.05 1.4.44 1.87.37.44.89.62 1.5.62 1.06 0 1.65-.7 1.65-.7l-.05.34a.22.22 0 0 0 .05.17.2.2 0 0 0 .15.08h1.08c.08 0 .16-.03.22-.09.07-.05.1-.13.12-.21l.64-4.18a.22.22 0 0 0-.04-.17.2.2 0 0 0-.16-.07ZM9.62 4.73c-.12.7-.66 1.17-1.35 1.17-.34 0-.62-.12-.8-.33a1.06 1.06 0 0 1-.18-.86c.1-.69.65-1.17 1.33-1.17a1 1 0 0 1 .8.33c.18.22.25.53.2.86Zm8-2.37h-1.19a.34.34 0 0 0-.29.15l-1.65 2.5-.7-2.4a.36.36 0 0 0-.12-.18.34.34 0 0 0-.21-.07h-1.18a.2.2 0 0 0-.17.09.22.22 0 0 0-.02.19L13.4 6.6l-1.24 1.8a.22.22 0 0 0 .07.3.2.2 0 0 0 .1.03h1.2a.34.34 0 0 0 .28-.15l3.99-5.89a.21.21 0 0 0-.06-.3.2.2 0 0 0-.11-.03Z"
        fill="#253B80" />
    <path
        d="M21.6 0h-2.5a.34.34 0 0 0-.22.09.36.36 0 0 0-.12.21l-1 6.53a.22.22 0 0 0 .04.18.2.2 0 0 0 .16.07h1.28c.06 0 .11-.02.16-.06.04-.04.07-.1.08-.15l.28-1.85a.36.36 0 0 1 .12-.22.34.34 0 0 1 .22-.08h.8c1.63 0 2.58-.81 2.82-2.42.12-.7 0-1.26-.31-1.65-.36-.42-.98-.65-1.82-.65Zm.28 2.39c-.14.91-.82.91-1.48.91h-.37l.26-1.7c0-.06.03-.1.07-.13a.2.2 0 0 1 .14-.05h.17c.45 0 .87 0 1.09.26.13.15.17.39.12.7Zm7.15-.03h-1.19a.2.2 0 0 0-.13.05.21.21 0 0 0-.07.13l-.06.34-.08-.12c-.26-.39-.83-.52-1.4-.52-1.32 0-2.45 1.03-2.67 2.46-.11.71.05 1.4.45 1.87.36.44.88.62 1.5.62 1.06 0 1.65-.7 1.65-.7l-.06.34a.22.22 0 0 0 .05.17.2.2 0 0 0 .16.08h1.07c.09 0 .16-.03.23-.09.06-.05.1-.13.11-.21l.65-4.18a.22.22 0 0 0-.05-.17.2.2 0 0 0-.16-.07Zm-1.66 2.37c-.11.7-.65 1.17-1.34 1.17-.35 0-.63-.12-.8-.33a1.06 1.06 0 0 1-.19-.86c.1-.69.66-1.17 1.34-1.17a1 1 0 0 1 .79.33c.18.22.25.53.2.86ZM30.44.18l-1.02 6.65a.22.22 0 0 0 .04.18.2.2 0 0 0 .16.07h1.03c.17 0 .31-.13.34-.3l1-6.53a.22.22 0 0 0-.04-.17.2.2 0 0 0-.16-.08h-1.15a.2.2 0 0 0-.13.05.21.21 0 0 0-.07.13Z"
        fill="#179BD7" />
</svg>
