<svg width="32" height="32" fill="none" xmlns="http://www.w3.org/2000/svg" viewBox="0 0 32 32">
  <path d="M3 18.905c.096-.175.218-.205.406-.104.436.234.863.477 1.308.7a24.964 24.964 0 0 0 5.337 1.94 25.85 25.85 0 0 0 6.628.711 25.29 25.29 0 0 0 9.024-1.952c.122-.05.248-.084.382-.05.28.075.377.377.171.582-.117.117-.264.214-.402.31-1.286.884-2.69 1.525-4.173 2.007-1.03.33-2.078.578-3.146.737-.737.11-1.483.185-2.229.201-.033 0-.071.009-.105.013h-.884c-.033-.004-.07-.013-.104-.013-.151-.008-.302-.012-.449-.016a18.782 18.782 0 0 1-5.48-1.098 18.574 18.574 0 0 1-6.1-3.645c-.075-.067-.125-.16-.184-.239v-.084Zm6.62-10.9-.18.024a3.39 3.39 0 0 0-1.593.633c-.1.071-.192.147-.297.226a.18.18 0 0 1-.017-.058c-.017-.114-.033-.23-.054-.344-.03-.193-.126-.277-.319-.277h-.482c-.289 0-.343.055-.343.344v8.769c0 .042 0 .084.004.126.008.125.084.205.205.209.294.004.591.004.884 0 .122 0 .197-.084.21-.21.004-.041.004-.083.004-.125v-3.033c.046.037.071.058.092.08.75.623 1.613.829 2.556.644.855-.167 1.45-.69 1.835-1.462.293-.582.415-1.202.431-1.847.021-.717-.05-1.42-.339-2.087-.356-.821-.947-1.361-1.84-1.546-.133-.03-.272-.042-.41-.063-.117-.004-.23-.004-.347-.004ZM7.634 9.76c0-.063.016-.1.07-.139.575-.398 1.207-.607 1.911-.553.625.046 1.136.352 1.404 1.085.163.449.205.914.205 1.383 0 .436-.033.863-.167 1.282-.285.892-.939 1.232-1.785 1.194-.587-.025-1.098-.251-1.567-.582-.05-.038-.071-.072-.071-.139.004-.59 0-1.177 0-1.768 0-.586.004-1.173 0-1.763Zm8.618-1.756c-.042.004-.084.013-.122.017-.41.02-.813.071-1.21.172-.256.067-.503.159-.75.243-.151.05-.227.159-.223.322.005.139-.004.277 0 .415.005.201.088.256.285.205.327-.083.654-.176.985-.238.515-.097 1.035-.139 1.558-.06.273.043.528.122.704.353.155.2.214.44.222.687.013.348.009.695.013 1.043 0 .017-.004.038-.009.059-.02-.004-.037 0-.054-.004a7.566 7.566 0 0 0-1.34-.206c-.474-.025-.943.005-1.396.164-.54.188-.976.515-1.232 1.043-.197.41-.226.846-.163 1.286.084.587.377 1.04.897 1.328.498.277 1.039.31 1.587.226a3.447 3.447 0 0 0 1.689-.77.304.304 0 0 1 .067-.046c.025.159.046.31.075.46.025.13.105.214.226.218.227.004.457.004.683 0 .114-.004.189-.08.201-.197.005-.037.005-.08.005-.117v-4.441c0-.18-.009-.36-.038-.54-.08-.54-.31-.985-.796-1.274a2.417 2.417 0 0 0-.913-.298c-.151-.02-.302-.033-.453-.054-.163.004-.33.004-.498.004Zm1.466 5.35a.14.14 0 0 1-.063.126c-.47.34-.984.566-1.567.624a1.437 1.437 0 0 1-.704-.075.841.841 0 0 1-.52-.557 1.378 1.378 0 0 1-.003-.813c.104-.348.352-.545.687-.654.34-.109.691-.126 1.039-.092.352.03.695.096 1.047.143.067.008.088.041.088.108-.004.202 0 .399 0 .6-.004.197-.008.393-.004.59Zm10.889 5.422c-.042-.21-.201-.29-.382-.348a3.7 3.7 0 0 0-.88-.163 6.17 6.17 0 0 0-1.642.08c-.599.112-1.169.305-1.675.653a.575.575 0 0 0-.155.146.215.215 0 0 0-.021.168c.016.063.087.08.15.075.03 0 .063 0 .093-.004.326-.033.649-.071.976-.105.477-.046.96-.075 1.437-.037.2.012.406.058.603.113.214.058.31.218.318.436.017.335-.058.657-.146.976-.172.645-.42 1.27-.662 1.89-.017.041-.034.083-.042.125-.021.121.05.2.172.172a.444.444 0 0 0 .2-.105c.185-.18.374-.36.533-.561.536-.688.85-1.48 1.035-2.33.033-.15.058-.306.088-.457v-.724Zm-5.535-5.162c-.54-1.496-1.08-2.996-1.621-4.491-.084-.239-.176-.474-.264-.708-.046-.122-.134-.201-.268-.201a36.535 36.535 0 0 0-.96-.005c-.104 0-.155.084-.134.189.021.088.046.172.08.256a1554.68 1554.68 0 0 0 2.476 6.095c.071.172.088.319.008.495-.138.306-.247.628-.39.934-.125.272-.334.478-.636.557a1.767 1.767 0 0 1-.645.046c-.105-.008-.21-.033-.314-.041-.143-.009-.214.054-.218.2a6.992 6.992 0 0 0 0 .415c.004.23.083.335.31.373.234.042.473.08.708.084.716.017 1.286-.272 1.655-.897.146-.247.28-.506.385-.77.993-2.506 1.973-5.015 2.958-7.525.03-.075.054-.15.067-.23.017-.118-.038-.185-.155-.185-.277-.004-.557 0-.834 0-.155 0-.264.067-.322.218-.021.059-.046.113-.067.172-.486 1.395-.972 2.79-1.458 4.19-.105.301-.214.607-.323.93-.017-.046-.025-.072-.038-.101Z" fill="#222E3A"/>
</svg>
