<svg width="32" height="32" viewBox="0 0 32 32" fill="none" xmlns="http://www.w3.org/2000/svg">
<g id="cardVisa">
<path id="visa" fill-rule="evenodd" clip-rule="evenodd" d="M20.992 11C21.76 11 22.528 11.1235 23.296 11.3704L22.912 13.4691H22.784C22.144 13.2222 21.504 13.0988 20.864 13.0988C19.84 13.0988 19.328 13.5926 19.328 13.963C19.328 14.425 19.7763 14.6709 20.5679 15.1052L20.736 15.1975C22.272 15.8148 22.912 16.679 22.912 17.7901C22.912 19.7654 21.12 21 18.432 21C17.408 21 16.384 20.8765 15.488 20.5062L15.872 18.4074L16.256 18.5309C17.024 18.9012 17.792 19.0247 18.688 19.0247C19.328 19.1481 20.096 18.6543 20.224 18.037C20.352 17.5432 19.968 17.2963 18.944 16.8025C17.664 16.4321 16.768 15.4444 16.64 14.2099C16.64 12.2346 18.432 11 20.992 11ZM29.952 11.1235H27.904C27.264 11 26.752 11.3704 26.496 11.8642L22.656 20.6296H25.344C25.344 20.6296 25.728 19.3951 25.856 19.1482H29.184C29.312 19.5185 29.44 20.6296 29.44 20.6296H32L29.952 11.1235ZM6.52801 17.6667L9.08801 11.1235L11.776 11.2469L7.68001 20.7531H4.99201L2.68801 12.358C2.79258 12.4123 2.89564 12.4686 2.99712 12.5268C2.09177 11.9624 1.0738 11.5587 0 11.3704V11.1235H4.224C4.76298 11.1366 5.23015 11.487 5.376 11.9877L6.27199 16.3086C6.272 16.3086 6.272 16.3086 6.27201 16.3086L6.52801 17.6667ZM27.776 14.5802C27.776 14.5802 27.008 16.8025 26.752 17.2963H28.928C28.8 16.8025 28.288 14.5802 28.288 14.5802L28.16 13.7161C28.032 14.0864 27.776 14.5802 27.776 14.5802ZM11.264 20.7531L12.928 11.2469H15.488L13.824 20.7531H11.264Z" fill="#16277C"/>
</g>
</svg>
