<svg width="32" height="32" fill="none" xmlns="http://www.w3.org/2000/svg" viewBox="0 0 32 32">
  <path d="M22.186 17.763c-.613-.327-1.303-.422-1.988-.443-.574-.02-1.43-.358-1.43-1.32 0-.719.63-1.296 1.43-1.321.685-.023 1.376-.118 1.99-.444 1.523-.81 2.195-2.512 1.593-4.036-.601-1.524-2.303-2.43-4.035-2.148-1.732.282-2.995 1.669-2.995 3.29 0 .648.25 1.244.568 1.796.268.465.404 1.327-.516 1.817a1.525 1.525 0 0 1-1.962-.496c-.36-.53-.796-1.03-1.404-1.353-1.523-.81-3.458-.496-4.589.746-1.13 1.242-1.13 3.053 0 4.296 1.13 1.242 3.066 1.556 4.589.745.608-.323 1.043-.821 1.402-1.352.296-.435 1.034-.991 1.964-.495.683.363.894 1.16.515 1.816-.318.552-.567 1.148-.567 1.795-.001 1.622 1.261 3.01 2.994 3.293 1.732.282 3.434-.624 4.036-2.148.602-1.524-.07-3.226-1.595-4.037Z" fill="#22ADE7"/>
</svg>
