<svg viewBox="0 0 239 32" preserveAspectRatio="xMinYMid meet" fill="none" xmlns="http://www.w3.org/2000/svg">
<g clip-path="url(#clip0_2460_7816)">
<path d="M129.585 9.79334C129.585 11.5286 130.992 12.9561 132.743 12.9561C134.494 12.9561 135.918 11.5286 135.918 9.79334C135.918 8.04957 134.494 6.62207 132.743 6.62207C130.992 6.62207 129.585 8.04957 129.585 9.79334ZM130.314 9.79334C130.314 8.39147 131.378 7.29734 132.743 7.29734C134.107 7.29734 135.171 8.39147 135.171 9.79334C135.171 11.1867 134.107 12.2808 132.743 12.2808C131.378 12.2808 130.314 11.1867 130.314 9.79334ZM133.258 11.4773H134.159L133.472 10.1609C133.867 9.98996 134.133 9.62238 134.133 9.16934C134.133 8.55388 133.618 8.05811 132.957 8.05811H131.602V11.4773H132.417V10.2891H132.666L133.258 11.4773ZM132.417 9.62238V8.72483H132.812C133.12 8.72483 133.309 8.89582 133.309 9.17788C133.309 9.45143 133.12 9.62238 132.812 9.62238H132.417Z" fill="#222E3A"/>
<path d="M127.764 13.2866H123.702L119.734 17.5543V6.62207H116.63V24.7604H119.734V21.7287L121.018 20.3761L124.052 24.7604H127.857L123.165 18.114L127.764 13.2866Z" fill="#222E3A"/>
<path d="M115.478 13.2545C115.248 13.2312 115.025 13.2545 114.771 13.2545C113.804 13.2545 112.231 13.4874 111.54 15.0014V13.2545H108.569V24.7605H111.632V19.5199C111.632 17.051 112.921 16.134 114.487 16.134C114.763 16.134 115.478 16.134 115.478 16.134V13.2545Z" fill="#222E3A"/>
<path d="M96.7666 21.4097C96.7666 23.153 98.2488 24.7605 100.681 24.7605C102.372 24.7605 103.461 24.2703 104.04 23.3873L104.144 24.7605H106.842V22.9571V17.478C106.842 15.2366 105.499 13.2441 101.885 13.2441C98.8278 13.2441 97.1833 15.1686 96.9982 16.912L99.7314 17.478C99.8238 16.5044 100.565 15.6667 101.908 15.6667C103.206 15.6667 103.831 16.3233 103.831 17.1157C103.831 17.5006 103.623 17.5381 102.974 17.6287L100.171 18.0362C98.2719 18.3079 96.7666 19.4173 96.7666 21.4097ZM101.329 22.5191C100.333 22.5191 99.8472 21.8851 99.8472 21.2286C99.8472 20.3682 100.472 19.938 101.26 19.8248L103.831 19.4399V20.2175C103.831 22.1873 102.627 22.5191 101.329 22.5191Z" fill="#222E3A"/>
<path d="M88.322 18.0207C88.3913 16.7614 89.1526 15.7819 90.4452 15.7819C91.9225 15.7819 92.5456 16.7847 92.5456 18.0673V24.7604H95.6153V17.531C95.6153 15.0123 94.2766 13.2713 91.3917 13.2713C90.307 13.2713 89.0606 13.3566 88.322 14.2428V6.62207H85.252V24.7604H88.322V18.0207Z" fill="#222E3A"/>
<path d="M74.8887 21.4488C75.0282 22.6906 76.1914 24.7605 79.6342 24.7605C82.6353 24.7605 84.1007 23.0011 84.1007 21.2271C84.1007 19.6305 82.9609 18.3222 80.7044 17.8787L79.0761 17.5461C78.4479 17.4352 78.0293 17.1025 78.0293 16.5704C78.0293 15.9495 78.6805 15.4838 79.4947 15.4838C80.7975 15.4838 81.286 16.3043 81.3791 16.9473L83.9612 16.393C83.8216 15.2177 82.7283 13.2441 79.4716 13.2441C77.0056 13.2441 75.1912 14.8629 75.1912 16.8143C75.1912 18.3443 76.1914 19.6083 78.4014 20.074L79.9133 20.4066C80.7975 20.584 81.1465 20.9832 81.1465 21.471C81.1465 22.0475 80.6579 22.5576 79.6342 22.5576C78.285 22.5576 77.6103 21.7593 77.5407 20.8944L74.8887 21.4488Z" fill="#222E3A"/>
<path fill-rule="evenodd" clip-rule="evenodd" d="M71.7723 11.2077C71.772 11.192 71.7716 11.1763 71.7716 11.1605C71.7716 10.1269 72.6093 9.28906 73.6428 9.28906H74.3128V6.62207H72.8022C70.4652 6.62207 68.7052 8.37854 68.7052 10.884V13.2555H66.8281V16.1347H68.7052V24.7604H71.7723V16.1347H74.3128V13.2555H71.7723V11.2185C71.7723 11.2149 71.7723 11.2113 71.7723 11.2077Z" fill="#222E3A"/>
<path d="M65.6766 13.2545C65.4463 13.2312 65.223 13.2545 64.9696 13.2545C64.0024 13.2545 62.4294 13.4874 61.7383 15.0014V13.2545H58.7676V24.7605H61.8307V19.5199C61.8307 17.051 63.1192 16.134 64.6853 16.134C64.9617 16.134 65.6766 16.134 65.6766 16.134V13.2545Z" fill="#222E3A"/>
<path d="M54.2363 24.7605H57.0401V22.6857V13.2441H53.9836V19.9582C53.9836 21.287 53.1576 21.9164 51.8017 21.9164C50.3769 21.9164 49.7333 20.8907 49.7333 19.6085V13.2441H46.6768V20.2379C46.6768 22.7323 48.2395 24.7605 50.9743 24.7605C52.1695 24.7605 53.5241 24.5973 54.1446 23.525L54.2363 24.7605Z" fill="#222E3A"/>
<path d="M45.2792 11.0665C44.8853 9.13417 43.2609 6.62207 39.0273 6.62207C35.729 6.62207 32.9477 8.94092 32.9477 11.9844C32.9477 14.569 34.7446 16.3323 37.526 16.8879L39.9626 17.371C41.3165 17.6367 42.0795 18.6975 42.0795 19.6879C42.0795 20.8956 41.0704 21.7893 39.2487 21.7893C36.7873 21.7893 35.5815 20.2676 35.4338 18.5767L32.2832 19.398C32.5539 21.8376 34.5968 24.7604 39.2243 24.7604C43.2853 24.7604 45.5253 22.1033 45.5253 19.4705C45.5253 17.055 43.827 14.7381 40.6517 14.1342L38.2151 13.6753C36.9351 13.4337 36.3199 12.6849 36.3199 11.7429C36.3199 10.6076 37.4029 9.56894 39.0521 9.56894C41.267 9.56894 42.0548 11.0424 42.227 11.9844L45.2792 11.0665Z" fill="#222E3A"/>
<path fill-rule="evenodd" clip-rule="evenodd" d="M19.3971 0.00279612C19.3609 0.00186967 19.3247 0.000940628 19.2883 0H12.0193C7.26098 0.259085 5.26078 3.04913 4.72414 4.53503C2.59827 10.9663 0.618972 23.5121 0.350379 25.2545C0.0817903 26.9968 0.04607 28.0577 0.04607 28.0577C0.0280185 28.5003 0.0689903 28.9795 0.187155 29.445C0.771618 31.1552 2.53386 32.5959 6.41631 31.1606C10.0837 29.5464 14.4163 27.5428 18.8963 25.2925C20.7065 24.236 23.1137 22.2057 24.4274 19.5707C24.9647 18.4929 25.3191 17.3139 25.3747 16.0591C25.3725 15.8545 25.3703 15.6491 25.3682 15.443C25.3364 12.4193 25.303 9.24203 25.101 6.17953C25.101 6.17953 24.9447 4.20981 24.8417 3.49994C24.7387 2.79009 24.5972 2.54379 24.5972 2.54379C23.9673 1.15866 22.7557 0.466646 21.4697 0.143493C20.8832 0.0408541 20.1628 0.0224045 19.3971 0.00279612ZM19.1197 6.48851C19.1197 6.14723 18.8397 5.87055 18.4942 5.87055H18.1815C14.2087 5.87055 10.9882 9.05224 10.9882 12.977V16.2985C10.9882 18.3462 9.30796 20.0062 7.23525 20.0062H6.92247C6.57704 20.0062 6.29699 20.2829 6.29699 20.6242V22.787C6.29699 23.1283 6.57704 23.405 6.92247 23.405H7.23525C11.208 23.405 14.4285 20.2233 14.4285 16.2985V12.977C14.4285 10.9293 16.1088 9.26931 18.1815 9.26931H18.4942C18.8397 9.26931 19.1197 8.99263 19.1197 8.65135V6.48851Z" fill="#1EBFBF"/>
<path d="M150.39 25.0586C154.507 25.0586 157.377 22.6437 158.291 19.2656L156.41 18.5794C155.675 21.1724 153.59 23.1023 150.39 23.1023C146.962 23.1023 143.66 20.5885 143.66 15.6862C143.66 10.807 146.962 8.2932 150.39 8.2932C153.464 8.2932 155.599 9.91959 156.285 12.7369L158.264 12.054C157.377 8.59671 154.48 6.33691 150.39 6.33691C145.946 6.33691 141.525 9.66557 141.525 15.6862C141.525 21.7068 145.817 25.0586 150.39 25.0586ZM161.745 17.4379C161.745 15.5575 162.863 14.007 164.793 14.007C167.003 14.007 167.818 15.4322 167.818 17.2103V24.7023H169.847V16.9035C169.847 14.261 168.425 12.1794 165.506 12.1794C163.929 12.1794 162.533 12.892 161.745 14.1621V6.33691H159.713V24.7023H161.745V17.4379ZM173.482 17.4379C173.608 15.6334 175.03 13.9839 177.138 13.9839C179.45 13.9839 180.694 15.508 180.747 17.4379H173.482ZM181.027 20.6116C180.542 22.0598 179.424 23.2309 177.369 23.2309C175.185 23.2309 173.43 21.5782 173.43 19.2656V19.1633H182.802C182.828 18.9885 182.855 18.708 182.855 18.454C182.855 14.746 180.796 12.1794 177.115 12.1794C174.04 12.1794 171.348 14.746 171.348 18.5794C171.348 22.6701 174.116 25.0586 177.369 25.0586C180.186 25.0586 182.093 23.3563 182.779 21.2483L181.027 20.6116ZM189.638 14.007C191.821 14.007 192.811 15.508 193.141 16.8012L194.972 16.0161C194.464 14.0862 192.762 12.1794 189.638 12.1794C186.207 12.1794 183.617 14.8219 183.617 18.6058C183.617 22.3138 186.157 25.0586 189.664 25.0586C192.788 25.0586 194.49 23.0759 195.074 21.2746L193.296 20.4862C192.94 21.6045 191.973 23.2309 189.664 23.2309C187.503 23.2309 185.649 21.5287 185.649 18.6058C185.649 15.6598 187.503 14.007 189.638 14.007ZM207.013 12.5357H204.219L198.528 18.3254V6.33691H196.496V24.7023H198.528V21.0206L200.409 19.0874L204.572 24.7023H207.139L201.831 17.692L207.013 12.5357ZM212.651 12.1794C209.144 12.1794 206.555 14.8713 206.555 18.6058C206.555 22.3666 209.144 25.0586 212.651 25.0586C216.158 25.0586 218.748 22.3666 218.748 18.6058C218.748 14.8713 216.158 12.1794 212.651 12.1794ZM212.651 14.007C214.835 14.007 216.715 15.6598 216.715 18.6058C216.715 21.5782 214.835 23.2309 212.651 23.2309C210.467 23.2309 208.587 21.5782 208.587 18.6058C208.587 15.6598 210.467 14.007 212.651 14.007ZM228.476 23.0528V23.1518C228.476 23.7621 228.526 24.4219 228.605 24.7023H230.558C230.482 24.2206 230.406 23.3563 230.406 22.4161V12.5357H228.374V19.8759C228.374 21.8058 227.282 23.2309 225.276 23.2309C223.115 23.2309 222.278 21.6276 222.278 19.8495V12.5357H220.245V20.1794C220.245 22.8746 221.872 25.0586 224.818 25.0586C226.418 25.0586 227.892 24.2965 228.476 23.0528ZM235.843 8.67258H233.939V10.6817C233.939 11.8231 233.405 12.5357 232.161 12.5357H231.373V14.3633H233.811V21.3736C233.811 23.5839 235.107 24.8309 237.113 24.8309C237.901 24.8309 238.485 24.6759 238.713 24.6V22.8746C238.512 22.9241 238.053 23 237.697 23C236.4 23 235.843 22.3666 235.843 21.0965V14.3633H238.713V12.5357H235.843V8.67258Z" fill="#222E3A"/>
</g>
<defs>
<clipPath id="clip0_2460_7816">
<rect width="238.713" height="32" fill="white"/>
</clipPath>
</defs>
</svg>
